<?xml version="1.0" encoding="UTF-8" standalone="no"?>
<svg viewBox="0 0 720 720" xmlns="http://www.w3.org/2000/svg">
<path d="m481.55845,421.55844a95.84415,95.84415 0 0,1 -3.26581,24.80629l-92.57834-24.80629z" fill="#80ff00" transform="matrix(3.44309,0,0,3.44309,-968.04883,-1091.46344)"/>
<path d="m481.55845,421.55844a95.84415,95.84415 0 0,1 -3.26581,24.80629l-92.57834-24.80629z" fill="#f00" transform="matrix(0,-3.44309,3.44309,0,-1091.46344,1688.04883)"/>
<path d="m481.55845,421.55844a95.84415,95.84415 0 0,1 -3.26581,24.80629l-92.57834-24.80629z" fill="#ff4000" transform="matrix(.89114,-3.32577,3.32577,.89114,-1385.73035,1267.13028)"/>
<path d="m481.55845,421.55844a95.84415,95.84415 0 0,1 -3.26581,24.80629l-92.57834-24.80629z" fill="#ff8000" transform="matrix(1.72154,-2.9818,2.9818,1.72154,-1561.02862,784.39231)"/>
<path d="m481.55845,421.55844a95.84415,95.84415 0 0,1 -3.26581,24.80629l-92.57834-24.80629z" fill="#ffc000" transform="matrix(2.43463,-2.43463,2.43463,2.43463,-1605.41197,272.7327)"/>
<path d="m481.55845,421.55844a95.84415,95.84415 0 0,1 -3.26581,24.80629l-92.57834-24.80629z" fill="#ff0" transform="matrix(2.9818,-1.72154,1.72154,2.9818,-1515.85574,-232.97979)"/>
<path d="m481.55845,421.55844a95.84415,95.84415 0 0,1 -3.26581,24.80629l-92.57834-24.80629z" fill="#c0ff00" transform="matrix(3.32577,-.89114,.89114,3.32577,-1298.46304,-698.28169)"/>
<path d="m481.55845,421.55844a95.84415,95.84415 0 0,1 -3.26581,24.80629l-92.57834-24.80629z" fill="#40ff00" transform="matrix(3.32577,.89114,-.89114,3.32577,-547.13028,-1385.73035)"/>
<path d="m481.55845,421.55844a95.84415,95.84415 0 0,1 -3.26581,24.80629l-92.57834-24.80629z" fill="#0f0" transform="matrix(2.9818,1.72154,-1.72154,2.9818,-64.39231,-1561.02862)"/>
<path d="m481.55845,421.55844a95.84415,95.84415 0 0,1 -3.26581,24.80629l-92.57834-24.80629z" fill="#00ff40" transform="matrix(2.43463,2.43463,-2.43463,2.43463,447.2673,-1605.41197)"/>
<path d="m481.55845,421.55844a95.84415,95.84415 0 0,1 -3.26581,24.80629l-92.57834-24.80629z" fill="#00ff80" transform="matrix(1.72154,2.9818,-2.9818,1.72154,952.97979,-1515.85574)"/>
<path d="m481.55845,421.55844a95.84415,95.84415 0 0,1 -3.26581,24.80629l-92.57834-24.80629z" fill="#00ffc0" transform="matrix(.89114,3.32577,-3.32577,.89114,1418.28169,-1298.46304)"/>
<path d="m481.55845,421.55844a95.84415,95.84415 0 0,1 -3.26581,24.80629l-92.57834-24.80629z" fill="#0ff" transform="matrix(-5.65476079858138e-016,3.44309,-3.44309,-5.65476079858138e-016,1811.46344,-968.04883)"/>
<path d="m481.55845,421.55844a95.84415,95.84415 0 0,1 -3.26581,24.80629l-92.57834-24.80629z" fill="#00c0ff" transform="matrix(-.89114,3.32577,-3.32577,-.89114,2105.73035,-547.13028)"/>
<path d="m481.55845,421.55844a95.84415,95.84415 0 0,1 -3.26581,24.80629l-92.57834-24.80629z" fill="#0080ff" transform="matrix(-1.72154,2.9818,-2.9818,-1.72154,2281.02862,-64.39231)"/>
<path d="m481.55845,421.55844a95.84415,95.84415 0 0,1 -3.26581,24.80629l-92.57834-24.80629z" fill="#0040ff" transform="matrix(-2.43463,2.43463,-2.43463,-2.43463,2325.41197,447.2673)"/>
<path d="m481.55845,421.55844a95.84415,95.84415 0 0,1 -3.26581,24.80629l-92.57834-24.80629z" fill="#0040ff" transform="matrix(-2.9818,1.72154,-1.72154,-2.9818,2235.85574,952.97979)"/>
<path d="m481.55845,421.55844a95.84415,95.84415 0 0,1 -3.26581,24.80629l-92.57834-24.80629z" fill="#4000ff" transform="matrix(-3.32577,.89114,-.89114,-3.32577,2018.46304,1418.28169)"/>
<path d="m481.55845,421.55844a95.84415,95.84415 0 0,1 -3.26581,24.80629l-92.57834-24.80629z" fill="#8000ff" transform="matrix(-3.44309,-5.65476079858138e-016,5.65476079858138e-016,-3.44309,1688.04883,1811.46344)"/>
<path d="m481.55845,421.55844a95.84415,95.84415 0 0,1 -3.26581,24.80629l-92.57834-24.80629z" fill="#c000ff" transform="matrix(-3.32577,-.89114,.89114,-3.32577,1267.13028,2105.73035)"/>
<path d="m481.55845,421.55844a95.84415,95.84415 0 0,1 -3.26581,24.80629l-92.57834-24.80629z" fill="#f0f" transform="matrix(-2.9818,-1.72154,1.72154,-2.9818,784.39231,2281.02862)"/>
<path d="m481.55845,421.55844a95.84415,95.84415 0 0,1 -3.26581,24.80629l-92.57834-24.80629z" fill="#ff00c0" transform="matrix(-2.43463,-2.43463,2.43463,-2.43463,272.7327,2325.41197)"/>
<path d="m481.55845,421.55844a95.84415,95.84415 0 0,1 -3.26581,24.80629l-92.57834-24.80629z" fill="#ff0080" transform="matrix(-1.72154,-2.9818,2.9818,-1.72154,-232.97979,2235.85574)"/>
<path d="m481.55845,421.55844a95.84415,95.84415 0 0,1 -3.26581,24.80629l-92.57834-24.80629z" fill="#ff0040" transform="matrix(-.89114,-3.32577,3.32577,-.89114,-698.28169,2018.46304)"/>
</svg>
